{"title":"Looper 2012 Dual Audio Dvdrip x264 AVC.MKV","uid":7828959,"size":2335666190,"categoryP":"video","categoryS":"movies","magnet":"?xt=urn:btih:41d86dda3a830e1ae6c7c4ff05e9f0e0fe999c18&amp;dn=Looper+2012+Dual+Audio+Dvdrip+x264+AVC.MKV&amp;tr=udp%3A%2F%2Ftracker.openbittorrent.com%3A80&amp;tr=udp%3A%2F%2Fopen.demonii.com%3A1337&amp;tr=udp%3A%2F%2Ftracker.coppersurfer.tk%3A6969&amp;tr=udp%3A%2F%2Fexodus.desync.com%3A6969","seeders":0,"leechers":1,"uploader":"soulking77","files":1,"time":1353007043,"description":"Title: Loop time\nOriginal title: Looper Original title: Looper\nYear: 2012\nCountry: USA, China\nStudio: DMG Entertainment\nDuration: 01:53:45\nGenre: Action, Fantasy, Thriller\nDirector: Ryan Johnson\nAbout the film:\nIn the near future, where they can travel in time, the corporation is removes unwanted people, sending them to the past in a plastic bag. The task of the host - put a bullet into the victim's head, thereby erasing the accident of history. Everything goes smoothly as long as the main character does not extract the next package, discovering it himself ... from the future.\nFile:\nCodec: AVC Codec: AVC\nQuality: DVDRip-AVC\nVideo: 720x428 @ 1024x428, 25 fps, 1840 kbps\nAudio 1: AC3, 48 kHz, 6 ch, 448 kbps [Russian]\nAudio 2: AC3, 48 kHz, 6 ch, 448 kbps [English]\nVideo:\nID : 1\nFormat : AVC\nFormat/Info : Advanced Video Codec\nFormat profile : &lt;a class=&quot;__cf_email__&quot; href=&quot;/cdn-cgi/l/email-protection&quot; data-cfemail=&quot;733b1a141b333f475d42&quot;&gt;[email&amp;#160;protected]&lt;/a&gt;&lt;script cf-hash='f9e31' type=&quot;text/javascript&quot;&gt;\n/* &lt;![CDATA[ */!function(){try{var t=&quot;currentScript&quot;in document?document.currentScript:function(){for(var t=document.getElementsByTagName(&quot;script&quot;),e=t.length;e--;)if(t[e].getAttribute(&quot;cf-hash&quot;))return t[e]}();if(t&amp;&amp;t.previousSibling){var e,r,n,i,c=t.previousSibling,a=c.getAttribute(&quot;data-cfemail&quot;);if(a){for(e=&quot;&quot;,r=parseInt(a.substr(0,2),16),n=2;a.length-n;n+=2)i=parseInt(a.substr(n,2),16)^r,e+=String.fromCharCode(i);e=document.createTextNode(e),c.parentNode.replaceChild(e,c)}}}catch(u){}}();/* ]]&gt; */&lt;/script&gt;\nFormat settings, CABAC : Yes\nFormat settings, ReFrames : 12 frames\nCodec ID : V_MPEG4/ISO/AVC\nDuration : 1h 53mn\nBit rate : 1 840 Kbps\nWidth : 720 pixels\nHeight : 428 pixels\nDisplay aspect ratio : 2.40:1\nFrame rate : 25.000 fps\nColor space : YUV\nChroma subsampling : 4:2:0\nBit depth : 8 bits\nScan type : Progressive\nAudio #1\nID : 2\nFormat : AC-3\nFormat/Info : Audio Coding 3\nMode extension : CM (complete main)\nFormat settings, Endianness : Big\nCodec ID : A_AC3\nDuration : 1h 53mn\nBit rate mode : Constant\nBit rate : 448 Kbps\nChannel(s) : 6 channels\nChannel positions : Front: L C R, Side: L R, LFE\nSampling rate : 48.0 KHz\nBit depth : 16 bits\nCompression mode : Lossy\nStream size : 365 MiB (16%)\nTitle : AC3.448.Kbps.Russian\nLanguage : Russian\nDefault : Yes\nForced : No\nAudio #2\nID : 3\nFormat : AC-3\nFormat/Info : Audio Coding 3\nMode extension : CM (complete main)\nFormat settings, Endianness : Big\nCodec ID : A_AC3\nDuration : 1h 53mn\nBit rate mode : Constant\nBit rate : 448 Kbps\nChannel(s) : 6 channels\nChannel positions : Front: L C R, Side: L R, LFE\nSampling rate : 48.0 KHz\nBit depth : 16 bits\nCompression mode : Lossy\nStream size : 365 MiB (16%)\nTitle : AC3.448.Kbps.English\nLanguage : English\nDefault : No\nForced : No\n                        Screens:\n                       \n                       \n                       ","torrent":{"xt":"urn:btih:41d86dda3a830e1ae6c7c4ff05e9f0e0fe999c18","amp;dn":"Looper+2012+Dual+Audio+Dvdrip+x264+AVC.MKV","amp;tr":["udp%3A%2F%2Ftracker.openbittorrent.com%3A80","udp%3A%2F%2Fopen.demonii.com%3A1337","udp%3A%2F%2Ftracker.coppersurfer.tk%3A6969","udp%3A%2F%2Fexodus.desync.com%3A6969"],"infoHash":"41d86dda3a830e1ae6c7c4ff05e9f0e0fe999c18","infoHashBuffer":{"type":"Buffer","data":[65,216,109,218,58,131,14,26,230,199,196,255,5,233,240,224,254,153,156,24]},"announce":[],"urlList":[]}}